<?xml version="1.0" encoding="iso-8859-1"?>
<!-- Generator: Adobe Illustrator 19.0.0, SVG Export Plug-In . SVG Version: 6.00 Build 0)  -->
<svg version="1.1" id="Layer_1" xmlns="http://www.w3.org/2000/svg" xmlns:xlink="http://www.w3.org/1999/xlink" x="0px" y="0px"
	 viewBox="0 0 511.999 511.999" style="enable-background:new 0 0 511.999 511.999;" xml:space="preserve">
<g>
	<g>
		<path d="M247.381,456.58c-0.955-5.692-6.342-9.533-12.035-8.576l-0.377,0.063c-5.695,0.929-9.561,6.299-8.632,11.995
			c0.835,5.127,5.269,8.77,10.3,8.77c0.558,0,1.124-0.045,1.694-0.138l0.473-0.078C244.497,467.66,248.337,462.271,247.381,456.58z"
			/>
	</g>
</g>
<g>
	<g>
		<path d="M462.929,226.26c-5.778-0.092-10.516,4.529-10.597,10.3c-0.508,35.809-12.41,69.541-35.378,100.258
			c-47.755,63.87-127.131,94.782-150.321,102.736c-5.459,1.872-8.367,7.815-6.495,13.274c1.486,4.337,5.542,7.063,9.883,7.063
			c1.124,0,2.268-0.183,3.392-0.567c24.621-8.443,108.943-41.329,160.279-109.989c25.664-34.324,38.965-72.167,39.537-112.478
			C473.312,231.086,468.7,226.341,462.929,226.26z"/>
	</g>
</g>
<g>
	<g>
		<path d="M482.473,107.784c-13.031-21.765-27.268-32.699-35.878-38.164l21.698-55.337c1.261-3.216,0.851-6.849-1.095-9.703
			c-1.947-2.854-5.179-4.562-8.634-4.562H348.622c-3.453,0-6.683,1.705-8.63,4.556c-1.947,2.851-2.361,6.48-1.105,9.695
			l14.12,36.146c-17.465,2.956-55.135,14.791-84.36,62.126c-55.788,90.369-136.927,121.437-169.222,130.6
			c-42.686,12.11-69.654,47.759-70.781,49.271c-0.201,0.27-0.167,0.19-0.272,0.367c-0.767,0.934-6.424,7.347-21.858,13.621
			c-4.274,1.738-6.903,6.072-6.469,10.666c2.672,28.203,23.106,39.265,23.974,39.722c1.51,0.794,3.183,1.192,4.859,1.192
			c1.423,0,2.85-0.286,4.18-0.859c0.123-0.052,8.17-3.443,19.717-4.411c-10.702,9.774-16.935,17.981-17.477,18.705
			c-0.189,0.253-0.162,0.189-0.269,0.365c-0.737,0.911-6.605,7.699-22.344,13.892c-4.156,1.635-6.813,5.73-6.614,10.192
			c1.341,29.952,20.898,42.619,21.728,43.143c1.694,1.068,3.629,1.611,5.574,1.611c1.397,0,2.801-0.28,4.121-0.847
			c0.136-0.057,10.35-4.205,24.003-3.93c-3.198,3.903-5.015,6.52-5.288,6.919c-0.179,0.261-0.155,0.196-0.254,0.375
			c-0.697,0.939-6.274,7.97-21.741,14.819c-4.083,1.808-6.566,6.011-6.179,10.46c2.597,29.87,22.669,41.704,23.522,42.192
			c1.595,0.914,3.39,1.372,5.189,1.372c1.532,0,3.068-0.331,4.486-0.996c0.184-0.086,18.696-8.577,39.786-3.193
			c27.335,6.979,87.919,5.064,147.33-4.659c30.222-4.945,96.208-27.631,154.124-69.859
			c71.649-52.242,109.523-118.051,109.523-190.312C512.001,185.992,502.066,140.511,482.473,107.784z M30.565,335.851
			c-2.642-2.429-6.28-6.787-8.33-13.596c15.458-7.604,21.629-15.159,23.255-17.463c1.618-2.108,24.812-31.659,59.643-41.541
			c34.644-9.829,121.662-43.121,181.301-139.727c24.56-39.785,55.109-49.812,68.892-52.34
			c-6.854,30.755-24.259,62.198-54.009,97.837C227.482,257.471,142.2,312.093,107.813,321.158
			c-10.866,2.864-20.791,7.392-29.581,12.582C57.755,329,39.545,333.041,30.565,335.851z M35.715,418.358
			c-2.671-2.966-6.28-8.274-7.927-16.467c16.096-7.694,22.748-15.874,24.293-18.011c1.325-1.721,26.044-33.284,61.059-42.514
			c45.083-11.885,133.797-74.59,204.219-158.953c22.303-26.718,38.195-51.487,48.349-75.603
			c-1.363,15.731-8.686,31.012-26.39,67.948c-5.897,12.3-13.235,27.61-21.713,45.851C273,316.577,167.726,376.773,126.55,389.5
			c-19.255,5.952-35.261,17.114-47.127,27.694C60.928,412.681,44.418,415.85,35.715,418.358z M244.981,482.509
			c-55.971,9.158-114.339,11.274-138.786,5.034c-6.924-1.768-13.591-2.443-19.738-2.443c-11.872,0-21.798,2.519-27.857,4.544
			c-2.793-2.852-6.622-8.003-8.612-16.119c15.793-8.382,22.089-16.854,23.524-19.03c1.244-1.775,24.414-34.271,59.21-45.026
			c20.58-6.361,58.86-24.648,99.01-55.253c33.079-25.214,78.117-67.333,104.826-124.797c8.426-18.128,15.428-32.737,21.606-45.626
			c27.852-58.104,32.871-68.574,25.529-111.669c-0.119-0.699-0.309-1.386-0.567-2.047l-5.434-13.91
			c-0.01-0.027-0.021-0.053-0.031-0.079l-13.737-35.167h79.321l-19.27,49.144c-0.606,1.544-0.835,3.211-0.669,4.862
			c0.57,5.653,4.716,8.021,7.743,9.752c49.635,28.355,60.053,101.727,60.053,158.286
			C491.101,393.174,308.061,472.185,244.981,482.509z"/>
	</g>
</g>
<g>
</g>
<g>
</g>
<g>
</g>
<g>
</g>
<g>
</g>
<g>
</g>
<g>
</g>
<g>
</g>
<g>
</g>
<g>
</g>
<g>
</g>
<g>
</g>
<g>
</g>
<g>
</g>
<g>
</g>
</svg>
