<?xml version="1.0" encoding="iso-8859-1"?>
<!-- Generator: Adobe Illustrator 19.1.0, SVG Export Plug-In . SVG Version: 6.00 Build 0)  -->
<svg version="1.1" id="Capa_1" xmlns="http://www.w3.org/2000/svg" xmlns:xlink="http://www.w3.org/1999/xlink" x="0px" y="0px"
	 viewBox="0 0 83.282 83.282" style="enable-background:new 0 0 83.282 83.282;" xml:space="preserve">
<path d="M11.003,41.486c-2.117-1.28-4.141-2.745-6.041-4.371c-1.752-1.5-4.4-3.768-4.877-7.068
	c-0.498-3.442,1.239-6.821,4.323-8.409c2.83-1.458,5.664-0.696,7.54-0.193c7.17,1.923,13.189,2.757,18.941,2.624
	c6.456-0.149,13.007-1.531,19.472-4.108c0.526-0.21,1.054-0.439,1.581-0.667c-1.666,2.171-3.421,4.209-5.242,6.056
	c-5.233,1.6-10.502,2.471-15.721,2.591c-6.049,0.14-12.601-0.762-20.035-2.756c-1.078-0.289-2.047-0.52-2.942-0.52
	c-0.64,0-1.242,0.118-1.821,0.416c-1.59,0.819-2.52,2.632-2.263,4.41c0.249,1.72,1.761,3.138,3.564,4.682
	c2.324,1.991,4.851,3.715,7.51,5.124c0.848,0.45,1.715,0.867,2.595,1.259c-1.75,0.312-3.591,0.579-5.545,0.802
	C11.731,41.393,11.38,41.434,11.003,41.486z M29.484,60.716c0.087-0.049,0.171-0.098,0.257-0.147
	c-2.651,0.189-5.301,0.148-7.914-0.146c-2.989-0.335-5.972-1.013-8.866-2.013c-2.243-0.775-4.17-1.539-5.032-3.048
	c-0.891-1.559-0.691-3.588,0.488-4.933c1.03-1.175,2.567-1.434,4.47-1.65c7.646-0.872,14.073-2.436,19.649-4.785
	c6.378-2.686,12.353-6.626,17.758-11.711c2.686-2.527,5.264-5.422,7.663-8.562c0.584-2.406,1.055-4.878,1.395-7.381l0.065-0.492
	c0.06-0.459,0.126-0.948,0.208-1.456c-3.435,5.709-7.567,10.913-11.985,15.069c-5.069,4.768-10.656,8.457-16.608,10.963
	c-5.304,2.234-11.209,3.665-18.584,4.506c-1.93,0.219-4.845,0.551-6.944,2.945c-2.287,2.609-2.664,6.39-0.938,9.409
	c1.655,2.895,4.95,4.034,7.13,4.786c3.163,1.093,6.426,1.834,9.699,2.201c1.064,0.119,2.133,0.197,3.205,0.241
	C26.218,62.561,28.214,61.431,29.484,60.716z M37.224,79.932c3.338-0.224,6.632-0.81,9.791-1.745
	c13.401-3.965,25.175-14.226,31.494-27.446c3.016-6.31,4.619-13.28,4.765-20.717c0.135-6.925-1.344-13.514-4.165-18.553
	c-0.006-0.01-0.011-0.02-0.017-0.03c-0.752-1.288-1.85-2.379-3.139-3.129c-0.003-0.017-0.007-0.034-0.01-0.051l-0.174-0.863
	c-0.564-2.792-3.292-4.606-6.086-4.041C66.89,3.92,65.078,6.65,65.642,9.441l0.032,0.157c-2.074,2.03-2.401,4.514-2.691,6.719
	l-0.068,0.507c-0.921,6.787-2.741,13.386-5.262,19.085c-2.815,6.364-6.528,11.936-11.036,16.56
	c-3.962,4.065-8.989,7.787-15.368,11.38c-1.692,0.953-4.249,2.394-5.251,5.415c-1.092,3.292,0.032,6.922,2.795,9.032
	c1.875,1.431,4.163,1.734,6.156,1.734C35.775,80.029,36.55,79.977,37.224,79.932z M71.971,8.163l0.174,0.864
	c0.023,0.115,0.029,0.237,0.018,0.362c-0.076,0.855,0.421,1.658,1.22,1.972c0.088,0.035,0.176,0.069,0.259,0.108
	c0.866,0.405,1.609,1.083,2.096,1.91c2.449,4.382,3.783,10.42,3.663,16.569c-0.134,6.881-1.61,13.314-4.386,19.122
	c-5.854,12.247-16.732,21.743-29.099,25.403c-2.886,0.854-5.897,1.39-8.951,1.594c-2.367,0.159-4.44,0.204-5.822-0.851
	c-1.428-1.09-2.032-3.037-1.469-4.734c0.493-1.485,1.751-2.288,3.476-3.259c6.704-3.776,12.017-7.719,16.24-12.051
	c4.83-4.955,8.802-10.91,11.804-17.697c2.666-6.027,4.588-12.988,5.558-20.13l0.069-0.523c0.296-2.246,0.523-3.57,1.764-4.643
	c0.114-0.099,0.234-0.188,0.357-0.274c0.703-0.496,0.994-1.396,0.716-2.209c-0.018-0.051-0.035-0.103-0.046-0.158l-0.174-0.863
	c-0.139-0.687,0.324-1.384,1.011-1.522c0.082-0.016,0.164-0.025,0.246-0.025C71.294,7.128,71.849,7.559,71.971,8.163z
	 M71.894,50.552c0.4-0.734,0.787-1.491,1.151-2.251c1.517-3.174,2.644-6.582,3.349-10.127c0.179-0.899-0.405-1.773-1.304-1.952
	c-0.899-0.181-1.773,0.405-1.952,1.304c-0.651,3.274-1.69,6.418-3.088,9.342c-0.338,0.707-0.698,1.411-1.07,2.094
	c-0.439,0.805-0.142,1.813,0.662,2.252c0.252,0.138,0.525,0.203,0.793,0.203C71.023,51.417,71.592,51.104,71.894,50.552z
	 M77.136,32.801c0.043-0.53,0.077-1.063,0.102-1.6c0.044-0.916-0.663-1.693-1.579-1.737c-0.912-0.048-1.693,0.664-1.737,1.579
	c-0.024,0.5-0.056,0.997-0.095,1.492c-0.073,0.914,0.608,1.714,1.522,1.787c0.045,0.004,0.09,0.005,0.134,0.005
	C76.34,34.328,77.067,33.67,77.136,32.801z"/>
<g>
</g>
<g>
</g>
<g>
</g>
<g>
</g>
<g>
</g>
<g>
</g>
<g>
</g>
<g>
</g>
<g>
</g>
<g>
</g>
<g>
</g>
<g>
</g>
<g>
</g>
<g>
</g>
<g>
</g>
</svg>
