<?xml version='1.0' encoding='iso-8859-1'?>
<!DOCTYPE svg PUBLIC '-//W3C//DTD SVG 1.1//EN' 'http://www.w3.org/Graphics/SVG/1.1/DTD/svg11.dtd'>
<svg version="1.1" xmlns="http://www.w3.org/2000/svg" viewBox="0 0 497.807 497.807" xmlns:xlink="http://www.w3.org/1999/xlink" enable-background="new 0 0 497.807 497.807">
  <path d="m481.696,119.652c-15.24-4.433-44.137-9.933-77.827-1.966 1.29-16.829 3.297-30.759 7.257-38.081l7.982-14.758h-16.778c-13.245,0-41.643,2.136-71.397,17.638-28.5-2.359-62.689-43.957-73.747-60.269l-8.276-12.228-8.287,12.223c-11.061,16.316-45.25,57.914-73.75,60.273-29.754-15.502-58.153-17.638-71.397-17.638h-16.778l7.982,14.758c3.96,7.322 5.968,21.252 7.257,38.081-33.69-7.966-62.586-2.466-77.827,1.967l-16.11,4.685 11.786,11.941c9.321,9.443 16.477,31.634 24.761,57.328 12.027,37.299 26.995,83.718 57.868,121.05 17.007,20.565 37.483,36.508 60.862,47.388 24.173,11.249 52.271,17.463 83.626,18.548v107.225h20v-107.224c31.354-1.085 59.453-7.299 83.625-18.548 23.378-10.88 43.855-26.823 60.862-47.388 30.873-37.332 45.841-83.751 57.868-121.05 8.285-25.694 15.44-47.885 24.762-57.328l11.786-11.941-16.11-4.686zm-222.793,240.86v-85.99c0-156.234 89.483-184.11 129.092-188.783-3.733,16.122-4.742,38.07-5.933,63.972-2.019,43.887-4.531,98.505-22.47,140.716-18.86,44.378-51.855,67.379-100.689,70.085zm-29.893-293.268c8.138-8.214 14.985-16.38 19.893-22.633 4.908,6.252 11.755,14.418 19.893,22.633 13.842,13.972 27.154,23.839 39.809,29.536-3.405,2.636-6.785,5.468-10.114,8.551-23.388,21.66-39.955,50.42-49.588,85.96-9.634-35.54-26.201-64.301-49.588-85.96-3.329-3.083-6.708-5.915-10.114-8.551 12.655-5.697 25.967-15.564 39.809-29.536zm9.893,207.278v85.99c-48.834-2.707-81.829-25.707-100.689-70.085-17.939-42.211-20.452-96.829-22.47-140.716-1.191-25.902-2.201-47.851-5.934-63.972 39.61,4.673 129.093,32.549 129.093,188.783zm-183.32-87.053c-6.749-20.931-12.484-38.717-19.831-51.845 15.144-2.621 36.186-3.606 59.45,3.057 0.194,3.931 0.378,7.924 0.563,11.949 2.092,45.488 4.696,102.098 24.042,147.62 4.425,10.412 9.584,19.842 15.457,28.297-46.332-35.7-64.758-92.795-79.681-139.078zm386.641,0c-14.924,46.282-33.35,103.376-79.681,139.076 5.874-8.455 11.031-17.884 15.456-28.295 19.346-45.521 21.95-102.132 24.042-147.62 0.185-4.025 0.369-8.018 0.564-11.949 23.264-6.664 44.306-5.678 59.45-3.057-7.347,13.128-13.082,30.915-19.831,51.845z"/>
</svg>
