<?xml version="1.0" standalone="no"?>
<!DOCTYPE svg PUBLIC "-//W3C//DTD SVG 20010904//EN"
 "http://www.w3.org/TR/2001/REC-SVG-20010904/DTD/svg10.dtd">
<svg version="1.0" xmlns="http://www.w3.org/2000/svg"
 width="750.000000pt" height="1000.000000pt" viewBox="0 0 750.000000 1000.000000"
 preserveAspectRatio="xMidYMid meet">
<metadata>
Created by potrace 1.14, written by Peter Selinger 2001-2017
</metadata>
<g transform="translate(0.000000,1000.000000) scale(0.100000,-0.100000)"
fill="#000000" stroke="none">
<path d="M3680 9941 c-111 -23 -177 -43 -338 -102 -73 -27 -183 -63 -244 -80
-196 -53 -225 -79 -299 -262 -17 -43 -61 -129 -99 -190 -68 -113 -80 -147 -95
-277 -4 -30 -13 -64 -19 -75 -20 -31 -35 -83 -51 -175 -13 -74 -19 -89 -53
-125 -21 -22 -62 -69 -92 -105 -113 -135 -138 -147 -460 -219 -211 -47 -274
-70 -341 -123 -115 -91 -129 -229 -42 -445 89 -223 208 -334 468 -433 33 -13
63 -26 67 -29 4 -3 12 -55 18 -116 20 -186 65 -322 137 -420 37 -49 111 -91
193 -108 l62 -12 24 -63 c13 -34 40 -87 60 -118 20 -30 35 -56 33 -58 -2 -1
-47 -17 -99 -35 -336 -116 -633 -287 -930 -535 -258 -216 -454 -467 -554 -710
-140 -338 -121 -736 50 -1066 37 -71 60 -129 70 -180 28 -143 99 -239 165
-225 25 6 28 2 45 -41 41 -109 151 -260 284 -392 57 -57 69 -74 75 -112 10
-65 37 -121 81 -170 53 -59 110 -83 187 -78 l61 3 8 -35 c5 -19 14 -52 19 -72
l10 -38 327 -2 327 -3 2 -27 2 -28 -342 0 -342 0 -19 -33 c-10 -17 -53 -95
-96 -172 -42 -77 -86 -156 -97 -175 -11 -19 -155 -278 -320 -575 -166 -297
-313 -560 -327 -585 -32 -56 -34 -116 -6 -226 56 -223 234 -465 508 -692 80
-66 70 -63 298 -92 994 -125 2459 -117 3744 20 106 12 133 25 265 135 283 234
490 546 520 782 7 51 4 57 -275 503 -23 36 -80 128 -127 205 -47 77 -98 159
-112 181 -14 23 -120 195 -236 382 l-210 341 -317 1 -318 0 0 30 0 30 319 0
318 0 13 59 c17 80 19 83 61 70 75 -23 169 32 224 132 24 45 30 68 32 131 2
68 6 82 32 118 16 23 38 65 47 93 11 35 29 63 55 85 85 73 204 261 248 392 10
29 23 40 70 62 109 52 188 159 211 289 19 100 -2 245 -55 386 -19 50 -25 85
-25 147 -1 155 -30 340 -72 451 -25 67 -99 207 -147 280 -197 297 -487 536
-893 736 -205 100 -321 145 -428 166 -47 10 -87 19 -90 21 -2 1 9 16 25 31 17
16 37 37 45 48 16 18 111 42 795 202 l200 46 3 39 c4 44 -13 92 -34 100 -8 3
-169 -31 -357 -75 -188 -44 -376 -88 -417 -98 l-76 -17 4 25 c3 25 7 26 70 27
235 4 393 221 415 569 2 37 5 41 67 73 180 94 369 222 456 307 98 97 129 205
85 301 -20 43 -99 119 -166 159 -35 21 -462 247 -620 329 -81 41 -147 83 -292
184 l-123 85 0 56 c-1 31 -6 76 -11 101 -6 25 -12 83 -14 130 -2 61 -10 104
-28 150 -14 36 -35 110 -46 165 -45 209 -78 294 -140 358 -45 48 -79 65 -206
107 -56 18 -155 63 -225 101 -179 98 -219 110 -370 115 -94 3 -146 -1 -210
-15z m315 -12 c65 -12 129 -40 274 -119 51 -28 144 -68 206 -90 141 -48 164
-60 203 -105 56 -63 84 -136 127 -330 15 -66 38 -149 51 -184 25 -66 34 -194
15 -206 -6 -3 -25 8 -43 23 -82 72 -271 177 -492 273 -95 41 -112 52 -128 83
-28 54 -116 138 -184 173 -256 135 -585 43 -714 -199 -28 -52 -34 -57 -73 -63
-236 -38 -575 -132 -599 -167 -6 -8 -7 14 -3 57 7 80 34 145 104 255 27 41 69
125 95 187 57 136 90 170 186 196 36 10 153 48 260 84 360 120 440 139 586
142 39 0 97 -4 129 -10z m-123 -450 c83 -17 188 -72 245 -128 259 -255 62
-656 -332 -679 -191 -11 -372 84 -456 240 -32 59 -34 69 -34 158 0 88 3 101
33 162 90 184 328 292 544 247z m537 -346 c199 -92 369 -191 416 -243 10 -11
26 -20 35 -20 10 0 22 -6 28 -12 10 -13 28 -168 19 -168 -2 0 -53 25 -113 55
-66 33 -192 82 -324 125 -118 39 -220 73 -226 75 -8 2 -7 18 3 57 14 51 12
142 -3 181 -10 28 11 21 165 -50z m-1137 -37 c-3 -47 1 -93 11 -125 l15 -51
-32 -4 c-17 -3 -74 -11 -126 -17 -255 -30 -514 -105 -575 -166 -17 -17 -18
-16 -12 17 4 19 9 55 13 80 7 45 45 133 68 155 41 42 241 107 456 150 91 18
170 34 175 34 7 1 9 -27 7 -73z m1057 -202 c328 -98 476 -165 691 -313 182
-125 228 -152 527 -306 73 -38 131 -71 129 -73 -5 -4 -132 37 -431 140 -399
137 -436 143 -865 143 -396 -1 -693 -24 -1195 -95 -396 -55 -483 -62 -845 -66
l-345 -4 105 28 c173 47 208 69 320 202 119 141 157 175 235 210 109 50 316
98 510 120 55 6 110 12 122 14 17 2 28 -6 42 -29 l19 -32 -107 -7 c-193 -12
-251 -19 -251 -29 0 -9 101 -6 301 9 l77 6 38 -36 c38 -34 38 -35 14 -36 -14
0 -68 -5 -120 -10 -52 -6 -188 -15 -302 -20 -114 -5 -228 -15 -253 -21 -52
-13 -63 -35 -12 -25 17 3 100 11 182 16 83 5 243 17 356 26 l206 16 55 -26
c30 -14 63 -26 74 -27 58 -3 -64 -19 -216 -29 -215 -13 -496 -44 -650 -70
-155 -27 -165 -29 -154 -40 6 -6 48 -2 109 9 150 29 404 59 650 76 121 9 253
20 293 25 40 6 96 10 124 10 62 0 178 20 392 67 147 33 169 35 275 30 104 -4
130 -10 246 -50 72 -24 138 -48 149 -52 13 -6 17 -4 14 5 -5 15 -119 61 -223
90 -160 46 -282 44 -476 -5 -124 -31 -131 -31 -83 1 21 14 60 46 86 71 l47 46
98 -6 c82 -5 152 -20 256 -54 9 -3 17 -1 17 5 0 23 -196 72 -292 72 -38 0 -68
3 -68 6 0 13 22 44 31 44 6 0 50 -12 98 -26z m401 -440 c164 -21 284 -53 550
-147 85 -30 234 -80 330 -112 378 -123 520 -227 520 -381 0 -80 -103 -206
-257 -313 -43 -29 -42 -23 5 25 99 106 125 187 86 269 -69 147 -366 288 -799
379 -66 14 -217 45 -335 70 -118 25 -255 50 -305 56 -189 21 -433 10 -916 -44
-293 -33 -873 -81 -1214 -101 -148 -8 -319 -20 -380 -26 -123 -11 -237 -45
-296 -87 -139 -99 -144 -302 -13 -485 37 -52 27 -54 -16 -3 -95 113 -173 312
-174 446 -1 65 3 82 26 122 31 51 92 95 173 121 126 42 191 48 610 57 431 9
407 7 985 84 604 80 1137 106 1420 70z m-245 -173 c142 -12 396 -67 412 -90 7
-9 16 -21 22 -27 35 -41 61 -144 61 -240 l0 -53 -77 39 c-70 35 -174 67 -273
84 -33 6 -38 11 -54 61 -38 110 -125 165 -262 165 -80 0 -138 -19 -191 -64
l-32 -27 -223 6 c-123 4 -294 2 -382 -3 -151 -9 -160 -8 -200 12 -32 17 -59
21 -126 20 -47 0 -101 -6 -121 -12 -48 -17 -113 -80 -130 -126 -9 -26 -21 -38
-39 -42 -76 -17 -151 -40 -199 -61 -29 -12 -55 -23 -57 -23 -7 0 -4 42 12 144
l16 103 97 7 c53 4 202 16 331 27 222 19 347 31 795 78 293 31 442 36 620 22z
m-2225 -191 c0 -16 9 -53 20 -81 13 -37 16 -57 10 -70 -17 -31 -12 -164 9
-218 l18 -49 -46 -5 c-25 -3 -55 -8 -66 -12 -16 -4 -27 6 -57 52 -50 78 -60
107 -61 178 -1 44 4 68 17 88 23 34 11 50 -14 19 -49 -60 -34 -183 36 -288 24
-38 44 -71 44 -74 -2 -15 -62 -74 -68 -65 -4 6 -36 35 -72 65 -145 123 -176
174 -166 277 8 74 -8 86 -22 18 -23 -110 23 -186 205 -342 l60 -52 -10 -44
-10 -45 -96 60 c-97 59 -169 125 -198 182 -22 43 -43 124 -43 169 0 21 -5 37
-11 37 -8 0 -10 -21 -7 -70 9 -126 87 -241 213 -315 129 -75 145 -90 145 -135
0 -22 -4 -40 -8 -40 -13 0 -130 49 -182 75 -53 28 -146 116 -189 181 -81 122
-100 267 -48 356 46 78 99 113 222 145 74 19 172 30 288 32 l87 1 0 -30z
m1875 9 c61 -5 120 -9 131 -9 13 0 24 -8 27 -19 3 -12 24 -25 58 -37 l54 -19
-120 -9 c-66 -5 -133 -8 -150 -8 -16 1 -263 3 -547 5 -285 2 -521 6 -524 9 -3
3 17 14 45 23 28 9 51 22 51 30 0 42 623 64 975 34z m1365 -35 c196 -64 356
-158 425 -248 39 -51 44 -111 14 -172 -47 -95 -261 -278 -386 -330 l-33 -14 0
55 c0 31 5 55 10 55 6 0 51 23 102 51 103 59 207 154 233 214 18 43 16 118 -4
138 -18 18 -23 1 -10 -41 18 -61 -1 -104 -81 -181 -71 -69 -235 -171 -249
-155 -5 5 -11 32 -15 61 l-6 51 57 45 c32 24 79 67 106 95 66 72 81 117 52
156 -19 25 -29 15 -15 -15 8 -17 8 -33 1 -52 -14 -37 -85 -112 -155 -164 l-60
-44 -15 25 c-9 15 -19 26 -23 26 -14 0 -8 21 13 43 11 12 34 50 51 84 26 53
30 71 26 118 -3 33 -11 63 -21 72 -23 23 -32 9 -13 -19 24 -34 20 -95 -13
-163 -39 -82 -64 -107 -99 -98 -15 4 -39 8 -54 8 -16 0 -28 1 -28 2 0 1 9 25
20 53 27 67 26 153 -1 226 -20 54 -21 59 -5 91 9 18 16 43 16 54 0 23 8 22
160 -27z m-2065 -107 c156 -44 235 -133 235 -264 0 -82 -43 -242 -70 -258 -22
-14 -21 4 5 81 54 165 41 262 -45 345 -67 66 -134 88 -299 102 -225 18 -420
-13 -588 -94 -126 -60 -163 -125 -163 -285 0 -182 72 -347 204 -466 85 -77
221 -127 306 -112 60 10 143 36 183 56 39 20 55 19 42 -2 -11 -18 -92 -50
-184 -72 -97 -23 -158 -17 -251 25 -98 43 -215 170 -288 312 -28 57 -56 232
-49 312 6 65 35 143 65 176 47 53 256 132 417 158 78 12 422 3 480 -14z m415
-7 c34 -37 41 -68 24 -117 -18 -50 -47 -73 -96 -73 -52 0 -92 24 -106 64 -21
56 -15 91 20 125 27 26 39 31 81 31 41 0 53 -5 77 -30z m753 19 c167 -24 352
-100 406 -167 47 -56 65 -129 58 -241 -9 -149 -36 -232 -110 -341 -136 -199
-306 -275 -502 -225 -101 26 -251 103 -234 120 2 2 36 -12 74 -31 169 -83 314
-96 424 -40 93 48 200 165 260 284 35 69 54 184 49 292 -5 101 -24 154 -70
197 -30 28 -148 86 -218 107 -191 58 -508 60 -655 5 -122 -46 -193 -153 -181
-275 6 -61 50 -209 68 -232 13 -15 6 -24 -13 -17 -17 6 -52 93 -74 180 -56
222 47 349 315 389 58 8 337 5 403 -5z m-1214 -62 c22 -15 52 -42 68 -62 36
-45 47 -45 28 2 -8 20 -13 38 -11 41 8 7 65 -37 90 -71 44 -58 55 -127 34
-219 l-11 -53 -19 64 c-46 151 -140 236 -263 236 -103 0 -184 -59 -239 -175
-29 -61 -31 -72 -31 -185 0 -114 2 -123 32 -187 36 -76 95 -140 147 -159 20
-7 36 -16 36 -20 0 -8 -91 -47 -149 -64 -82 -23 -121 -26 -179 -15 -81 17
-145 55 -212 127 -58 62 -59 63 -54 110 3 27 -2 88 -10 137 -9 49 -16 126 -16
171 0 48 -6 100 -15 125 -25 71 -21 86 32 117 27 15 84 40 128 55 l80 27 3
-54 c2 -30 5 -55 6 -55 2 0 26 22 52 49 92 92 96 93 277 88 149 -4 159 -6 196
-30z m1152 -34 l71 -67 -3 57 c-4 52 -2 57 16 57 61 0 264 -77 303 -114 11
-11 9 -27 -7 -91 -13 -48 -21 -111 -21 -159 0 -45 -7 -117 -15 -161 -8 -44
-12 -102 -9 -130 l6 -50 -60 -57 c-146 -140 -299 -156 -503 -52 l-51 25 45 29
c182 115 206 446 44 609 -103 104 -224 108 -332 10 -29 -27 -60 -67 -69 -89
-21 -53 -30 -50 -24 8 10 99 64 165 168 206 61 25 125 33 257 35 l113 1 71
-67z m-1135 -76 c76 -39 141 -155 151 -268 7 -70 -12 -110 -64 -135 l-38 -19
4 69 c4 81 -19 171 -55 209 -12 14 -20 28 -16 32 4 4 -5 4 -21 1 -15 -3 -38
-8 -51 -11 -15 -3 -34 -22 -53 -52 -26 -45 -28 -55 -28 -158 0 -102 2 -114 27
-156 15 -26 24 -50 20 -54 -4 -5 -2 -6 3 -2 6 3 17 2 25 -3 12 -7 12 -12 -2
-27 -9 -10 -20 -30 -23 -45 -9 -36 -38 -37 -90 -2 -87 57 -145 177 -145 301 0
173 83 309 209 343 34 9 110 -3 147 -23z m874 3 c53 -27 90 -68 124 -140 56
-119 47 -289 -19 -390 -57 -86 -121 -131 -159 -111 -28 15 -72 91 -53 91 8 0
22 9 32 20 10 11 22 17 26 14 5 -3 6 2 3 10 -3 8 2 28 11 46 11 21 17 63 19
131 1 54 -1 94 -5 88 -3 -6 -9 4 -13 23 -10 55 -45 90 -99 98 -26 4 -45 5 -42
2 2 -3 -7 -18 -20 -34 -38 -44 -58 -129 -53 -212 l5 -71 -37 78 c-56 116 -61
143 -37 205 56 148 193 214 317 152z m-481 -63 l38 10 6 -76 c3 -42 17 -112
31 -156 14 -43 24 -81 22 -83 -2 -2 -21 2 -43 8 -21 6 -75 10 -121 8 -50 -2
-82 1 -82 7 0 6 12 44 25 85 17 49 25 97 25 142 l0 67 30 -11 c21 -7 43 -7 69
-1z m-1425 -120 c22 -10 45 -24 51 -31 6 -6 21 -74 34 -151 39 -240 41 -249
60 -275 10 -14 30 -26 44 -28 15 -2 27 -5 27 -8 0 -2 -15 -34 -34 -71 -50
-100 -69 -175 -70 -280 l-1 -93 -40 0 c-53 0 -131 38 -177 86 -76 80 -128 241
-149 464 -18 197 -3 299 54 364 50 58 117 66 201 23z m3036 1 c46 -32 68 -80
81 -179 23 -167 -5 -396 -63 -519 -33 -71 -92 -144 -143 -178 -51 -33 -154
-62 -201 -55 l-29 5 0 101 c-1 112 -16 177 -67 284 -16 35 -28 65 -27 67 2 1
22 7 44 12 62 14 99 71 119 184 21 114 38 161 73 207 68 89 147 115 213 71z
m-1516 -214 c284 -98 411 -407 269 -659 -92 -166 -312 -269 -500 -235 -186 34
-332 160 -384 332 -75 247 82 505 349 573 70 18 197 13 266 -11z m1077 -345
c15 -36 36 -93 44 -125 19 -71 20 -222 2 -284 l-13 -44 -114 -28 c-63 -15
-144 -30 -180 -33 -62 -6 -204 -36 -244 -51 -16 -6 -14 0 10 31 16 21 36 65
44 97 l15 60 48 4 c61 5 145 49 174 92 24 36 38 120 31 185 -5 41 -3 43 44 77
26 19 58 47 70 63 12 15 25 26 30 25 5 -2 23 -33 39 -69z m-2334 47 c8 -14 85
-80 108 -94 11 -5 11 -17 3 -56 -13 -63 -2 -147 25 -188 35 -51 101 -95 161
-108 52 -10 54 -13 71 -58 28 -71 97 -134 165 -149 66 -15 169 -17 204 -3 21
8 29 5 47 -13 l20 -22 -45 -5 c-57 -7 -68 -18 -36 -38 14 -9 63 -53 110 -98
88 -84 107 -94 217 -115 91 -17 157 -5 265 47 81 40 107 47 208 60 63 7 149
20 190 28 41 8 116 20 167 25 94 11 223 46 234 63 5 8 106 37 134 38 16 0 -67
-79 -135 -129 -36 -27 -155 -103 -265 -171 -204 -125 -277 -172 -400 -260
-111 -78 -182 -104 -290 -105 -87 0 -94 2 -185 46 -52 25 -122 65 -155 88
-104 74 -157 106 -285 176 -118 65 -264 152 -390 233 -117 75 -224 212 -255
326 -22 79 -17 236 9 311 26 75 78 185 87 185 4 0 12 -6 16 -14z m3197 -338
c3 -7 7 -31 10 -54 l6 -41 -93 -21 c-73 -17 -601 -142 -704 -167 -13 -3 -23
-1 -23 4 0 10 1 11 429 116 189 46 349 89 355 95 7 7 7 10 -1 10 -16 0 -180
-39 -506 -121 -154 -38 -283 -69 -289 -69 -5 0 -8 15 -6 33 3 32 4 32 93 53
368 87 542 129 620 149 112 28 105 27 109 13z m-844 -224 c0 -19 5 -45 11 -56
9 -16 8 -19 -3 -16 -7 3 -19 24 -25 49 -12 40 -12 41 -9 9 1 -19 5 -40 7 -46
2 -7 0 -14 -6 -15 -5 -2 -16 16 -23 41 l-12 45 5 -47 c2 -27 1 -48 -4 -48 -5
0 -14 21 -20 48 l-10 47 4 -54 c5 -61 -4 -60 -22 2 -12 41 -12 41 -9 7 1 -19
5 -41 7 -49 2 -7 -1 -15 -7 -18 -7 -2 -16 16 -22 44 l-11 48 4 -54 c5 -63 -12
-59 -26 6 -8 37 -8 36 -5 -9 4 -57 -10 -64 -19 -10 -10 59 -16 62 -11 5 6 -66
-8 -69 -23 -5 l-10 47 4 -50 c6 -56 -9 -51 -19 7 -4 24 -3 39 6 44 12 7 211
60 236 63 7 1 12 -12 12 -35z m-277 -56 c3 -18 9 -47 12 -64 8 -35 16 -30
-110 -65 -38 -10 -93 -19 -122 -19 l-51 0 -17 50 c-19 59 -15 80 17 80 13 0
64 11 113 24 50 13 104 25 121 25 28 1 32 -3 37 -31z m-312 -103 c9 -25 14
-47 10 -50 -19 -11 -216 -44 -291 -49 -47 -3 -76 -3 -65 0 11 3 67 21 125 39
58 19 122 37 143 40 20 4 37 12 37 17 0 18 -88 0 -194 -37 -54 -20 -100 -34
-102 -32 -6 6 177 89 226 103 82 22 93 19 111 -31z m-896 -21 c72 -24 100 -27
275 -31 158 -4 205 -2 248 10 28 9 52 14 52 11 0 -2 -39 -23 -87 -46 -87 -41
-89 -42 -223 -46 -143 -4 -218 6 -280 39 -34 18 -100 73 -100 84 0 11 38 4
115 -21z m1360 -194 c49 -136 64 -184 59 -189 -3 -3 -9 1 -14 9 -15 23 -12 1
10 -85 23 -90 26 -173 7 -199 -19 -26 -68 -18 -84 14 -15 30 -17 167 -2 229 9
40 3 74 -8 43 -6 -15 -66 -72 -91 -86 -22 -13 -84 -26 -94 -20 -13 9 22 66 77
124 73 76 105 127 105 165 0 28 8 50 16 42 1 -1 10 -22 19 -47z m-1863 -38
c35 -21 97 -56 138 -79 150 -80 215 -117 229 -131 29 -28 166 -115 225 -143
33 -16 92 -36 130 -46 59 -14 77 -15 130 -4 88 17 194 70 299 150 51 37 110
78 132 89 22 12 67 39 100 61 32 22 61 39 62 37 5 -5 -163 -291 -204 -347
l-35 -49 -469 0 -469 0 -73 99 c-39 54 -99 141 -131 192 -33 52 -79 120 -103
152 -23 31 -38 57 -33 57 5 0 38 -17 72 -38z m-1011 -103 c41 -50 56 -76 60
-109 4 -24 2 -25 -43 -23 -26 0 -72 13 -104 27 l-57 26 6 -30 c4 -16 9 -58 12
-92 5 -53 3 -68 -14 -95 -11 -18 -33 -36 -48 -39 -23 -6 -33 -1 -73 43 -26 28
-51 68 -59 92 -12 41 -11 43 15 64 61 50 247 177 259 177 7 0 28 -19 46 -41z
m506 -130 c5 -50 8 -56 26 -51 18 5 19 2 13 -34 -4 -21 -10 -47 -13 -57 -4
-16 -1 -18 19 -12 31 10 79 38 113 66 33 29 75 109 75 144 0 25 0 25 25 9 34
-22 75 -94 75 -130 -1 -40 -31 -103 -69 -140 -26 -27 -40 -32 -98 -37 -38 -4
-112 -7 -167 -7 l-98 0 6 68 c10 96 34 240 47 287 l12 40 14 -45 c7 -25 16
-70 20 -101z m1953 30 c12 -14 90 -59 114 -65 37 -9 33 -17 -21 -46 -64 -34
-129 -50 -184 -46 l-46 3 51 92 c51 92 58 96 86 62z m1071 -56 c31 -64 38
-170 14 -207 -15 -22 -25 -26 -64 -26 -26 0 -73 5 -104 11 -55 11 -58 13 -83
65 -27 55 -43 134 -28 134 5 0 32 -13 61 -29 l52 -28 11 28 c14 33 83 99 104
99 8 0 25 -21 37 -47z m364 -76 c47 -38 85 -75 85 -83 0 -26 -79 -74 -122 -74
-45 0 -87 36 -90 79 -5 70 14 156 33 149 4 -2 46 -34 94 -71z m-1223 -177
c658 -15 928 -27 952 -44 12 -8 32 -23 45 -35 13 -11 28 -21 32 -21 5 0 36
-35 70 -77 34 -43 64 -80 68 -83 14 -12 111 -192 111 -208 0 -4 -24 15 -53 44
-34 32 -76 60 -113 75 l-59 24 -1856 2 c-1667 3 -1859 1 -1887 -13 -18 -8 -37
-12 -43 -8 -8 4 -9 3 -5 -4 4 -7 2 -12 -4 -12 -51 0 -236 -127 -267 -183 -18
-32 -16 -6 3 39 33 79 49 111 90 174 52 80 218 244 239 236 8 -3 14 0 12 7 -1
7 6 11 15 11 10 -1 15 2 13 7 -3 4 8 15 24 24 85 43 1559 69 2613 45z m1301
-126 c56 -30 127 -106 160 -173 27 -55 32 -77 32 -136 0 -59 -4 -78 -24 -107
-23 -33 -88 -86 -95 -77 -1 2 -17 46 -35 98 -41 119 -86 209 -145 289 -25 34
-46 67 -46 74 0 44 92 63 153 32z m-4668 -39 c32 -33 34 -86 3 -132 -25 -37
-100 -78 -161 -89 l-39 -7 17 33 c35 68 140 220 151 220 2 0 15 -11 29 -25z
m512 2 c9 -9 3 -23 -32 -65 -93 -112 -185 -296 -185 -371 0 -44 -50 -11 -84
56 -48 94 10 256 127 352 57 48 141 61 174 28z m4500 -163 c36 -63 93 -203
115 -284 14 -51 22 -118 25 -210 l5 -135 -43 65 c-54 82 -156 184 -234 234
-33 22 -62 41 -64 43 -3 2 5 13 17 26 38 41 54 95 50 174 l-3 72 45 30 c25 16
50 28 55 27 6 -1 20 -20 32 -42z m-644 -44 c140 -21 237 -100 310 -255 34 -73
50 -140 43 -177 -4 -18 -9 -48 -13 -65 -3 -19 -9 -30 -16 -26 -6 3 -7 1 -3 -6
11 -18 -25 -161 -41 -161 -7 0 -13 4 -13 9 0 6 -9 8 -21 6 -17 -4 -20 0 -16
18 3 12 16 73 28 136 22 109 22 116 7 175 -17 61 -37 113 -61 151 -17 29 -96
105 -108 105 -6 0 -7 4 -4 10 3 5 0 7 -9 4 -8 -3 -25 0 -38 8 -19 11 -352 13
-1860 13 -1010 0 -1834 -3 -1832 -7 3 -4 -8 -10 -23 -14 -15 -4 -49 -17 -75
-30 -49 -25 -74 -31 -48 -13 13 9 13 10 0 6 -8 -2 -15 -8 -15 -14 0 -6 -23
-28 -50 -50 -67 -53 -115 -141 -116 -215 -1 -29 9 -101 23 -160 16 -70 21
-108 14 -108 -6 0 -21 -3 -32 -6 -19 -5 -23 0 -34 45 -6 27 -8 55 -4 62 4 8 3
9 -4 5 -8 -5 -12 1 -12 17 0 13 -6 44 -14 69 -18 60 -5 149 30 214 30 54 101
134 120 134 7 0 14 3 16 8 12 27 179 109 199 96 5 -3 9 -1 9 5 0 5 12 12 28
14 61 9 3570 6 3635 -3z m-4433 -85 c142 -35 239 -75 255 -106 8 -14 32 -42
53 -61 40 -36 40 -37 35 -96 -5 -59 -6 -60 -39 -65 -19 -3 -71 -27 -117 -54
-211 -123 -284 -270 -294 -591 -5 -158 -6 -162 -22 -135 -19 30 -82 185 -100
243 -31 101 -43 234 -38 399 6 198 24 280 95 443 23 53 27 57 51 52 14 -3 69
-16 121 -29z m4381 -11 c4 -2 0 -34 -7 -71 -7 -38 -31 -162 -54 -277 -22 -115
-42 -211 -44 -213 -2 -2 -53 5 -112 16 -99 18 -245 37 -333 44 -33 2 -35 5
-56 67 -12 36 -32 85 -45 110 -35 68 -180 284 -198 294 -16 9 -25 1 -112 -104
-19 -24 -48 -63 -65 -89 -16 -25 -32 -48 -36 -51 -12 -9 -99 -189 -99 -205 0
-11 -12 -15 -47 -15 -55 0 -339 -34 -401 -48 -22 -5 -43 -8 -45 -6 -2 2 -12
-5 -21 -15 -17 -19 -17 -21 0 -50 10 -17 22 -31 26 -31 4 0 8 -7 8 -15 0 -8
-6 -15 -13 -15 -7 0 -21 -6 -31 -13 -16 -12 -15 -15 19 -50 19 -20 76 -69 125
-108 50 -40 90 -75 90 -78 0 -3 23 -21 50 -40 32 -22 50 -41 50 -54 0 -53 -24
-197 -32 -197 -5 0 -18 10 -29 23 -19 22 -19 22 -34 3 -23 -30 -18 -51 20 -93
l36 -38 -7 -77 c-6 -77 -6 -77 20 -84 21 -5 26 -12 26 -36 0 -29 1 -30 38 -23
20 4 42 10 47 15 6 5 30 16 55 26 25 10 47 20 50 24 15 17 62 40 84 40 15 0
27 7 30 18 4 10 25 29 49 42 23 13 54 36 69 52 31 33 52 35 71 8 8 -11 16 -17
19 -15 3 3 36 -15 74 -41 85 -57 81 -54 67 -62 -17 -11 -4 -52 16 -52 9 0 22
5 29 12 8 8 21 5 51 -15 22 -15 43 -27 46 -27 3 0 24 -9 48 -19 23 -10 56 -22
72 -25 17 -3 40 -8 53 -12 l22 -6 0 159 c0 147 2 161 20 178 29 26 49 71 43
95 -7 28 -27 25 -48 -6 -9 -14 -19 -24 -21 -21 -3 2 -9 31 -14 63 -5 33 -12
72 -16 88 -4 17 -2 26 4 22 11 -7 61 29 162 117 41 36 76 64 77 63 2 -1 -15
-94 -36 -207 -22 -112 -72 -373 -112 -579 -79 -417 -99 -473 -112 -320 -5 52
-3 57 29 86 37 34 43 64 18 88 -31 31 -59 20 -84 -33 -25 -55 -29 -57 -100
-67 -49 -6 -49 -6 -95 42 -25 27 -45 52 -45 56 0 19 -96 108 -128 119 -20 6
-40 13 -44 16 -4 2 -48 6 -98 8 -50 3 -107 12 -127 20 -20 8 -38 13 -41 10
-11 -10 30 -163 59 -223 28 -57 138 -182 161 -182 4 0 8 -3 8 -7 0 -5 -25 -6
-55 -5 -50 4 -55 6 -55 27 0 25 -34 56 -60 54 -13 0 -13 -1 0 -6 38 -15 53
-60 28 -80 -7 -6 -43 -21 -81 -34 -77 -27 -102 -21 -102 27 0 20 7 32 25 41
16 8 19 13 9 13 -9 0 -24 -9 -34 -20 -16 -18 -31 -20 -138 -20 -119 0 -119 0
-113 23 24 82 36 134 36 149 0 12 13 21 41 28 39 11 41 13 35 42 -3 17 -7 47
-7 67 l-2 36 -6 -34 c-4 -26 -12 -36 -32 -42 -25 -6 -26 -5 -37 67 -29 188
-147 413 -268 512 -67 55 -127 65 -198 34 -25 -12 -50 -22 -53 -24 -4 -2 -25
-23 -48 -48 -22 -25 -42 -47 -45 -50 -12 -12 -48 -68 -71 -110 -13 -25 -26
-47 -30 -50 -8 -8 -67 -171 -74 -209 -4 -19 -10 -29 -14 -22 -4 6 -5 -16 -3
-49 l4 -60 -48 2 c-48 3 -49 2 -52 -28 -3 -29 -1 -31 45 -40 l48 -9 11 -68 c6
-37 16 -73 22 -79 32 -32 14 -37 -148 -40 -119 -2 -160 0 -160 9 0 6 5 15 10
18 19 12 10 20 -50 43 -46 18 -80 24 -144 24 -96 -1 -248 -33 -318 -68 -39
-20 -63 -24 -131 -24 l-83 0 -17 73 c-46 199 -287 1322 -287 1336 0 6 9 2 20
-9 25 -25 86 -56 128 -65 30 -6 38 -16 64 -72 17 -35 28 -67 25 -70 -3 -3 -20
0 -37 6 l-31 10 3 -37 c3 -35 5 -37 48 -45 39 -7 47 -13 62 -45 34 -74 98
-235 95 -239 -3 -2 -16 12 -30 30 -35 46 -107 120 -112 116 -5 -5 149 -247
178 -278 l22 -24 -22 15 c-57 38 -129 108 -165 160 -49 73 -81 146 -74 173 3
11 1 27 -4 35 -9 13 -10 13 -10 0 0 -13 -1 -13 -10 0 -17 25 0 -48 30 -131 44
-121 120 -214 213 -257 31 -15 47 -28 47 -41 0 -10 3 -33 7 -51 6 -32 5 -33
-23 -27 -16 3 -36 8 -45 12 -13 5 -15 0 -11 -24 3 -24 10 -30 39 -36 l35 -6
-7 -72 -6 -72 36 -33 c25 -22 47 -32 69 -32 19 0 38 -8 49 -20 19 -23 48 -26
80 -8 58 31 60 67 7 150 -53 82 -58 103 -30 126 18 15 22 24 16 47 -5 21 -10
25 -19 16 -19 -19 -37 -12 -37 15 0 14 11 49 24 77 39 86 47 112 55 173 16
110 -13 222 -71 285 l-24 26 -1 -124 c-1 -67 -5 -138 -9 -155 -6 -30 -9 -26
-30 57 -28 106 -35 201 -16 198 8 -2 12 10 12 37 0 38 -1 40 -25 34 -22 -5
-25 -3 -25 19 0 14 -3 32 -6 41 -4 10 -1 16 8 16 21 0 63 39 81 75 25 50 47
149 47 210 0 43 -10 81 -42 162 -41 102 -43 105 -51 73 -8 -31 -9 -32 -22 -13
-7 10 -17 34 -22 53 l-9 34 -22 -35 c-12 -20 -29 -42 -39 -51 -25 -22 -63 -32
-63 -18 0 23 -62 108 -75 104 -7 -3 -16 4 -20 15 -8 25 -25 18 -25 -10 0 -11
-14 -37 -32 -58 l-31 -38 -43 24 c-23 13 -48 30 -54 38 -16 19 -30 19 -30 0 0
-22 -28 -18 -35 4 -9 29 -35 35 -35 8 0 -25 -32 -178 -36 -174 -5 4 -55 240
-52 242 2 1 30 11 63 22 58 19 107 19 1830 20 974 1 1773 -1 1776 -3z m126
-28 c37 -19 86 -72 108 -116 27 -55 55 -141 55 -168 0 -54 -55 -282 -67 -282
-22 0 -93 -49 -126 -87 -71 -79 -119 -223 -103 -308 9 -49 42 -118 65 -139 20
-18 20 -18 -9 -43 -73 -61 -107 -212 -71 -318 17 -50 18 -63 7 -80 -37 -57
-58 -177 -47 -260 4 -31 4 -58 0 -61 -17 -10 -49 -139 -49 -198 0 -63 -28
-206 -41 -206 -4 0 -9 6 -12 14 -3 7 -48 72 -101 145 l-96 131 29 148 c16 81
38 197 49 257 24 124 106 553 122 630 5 28 19 98 30 157 16 86 27 116 56 159
l36 53 -23 19 -22 18 36 187 c20 103 44 229 54 280 l17 93 38 -5 c21 -3 50
-12 65 -20z m-3780 -184 c28 -137 39 -202 46 -289 1 -12 6 -21 11 -20 11 2 24
-50 98 -403 11 -52 24 -111 28 -130 4 -19 13 -57 19 -85 17 -84 51 -237 63
-290 6 -27 12 -69 12 -92 1 -22 4 -39 8 -37 3 2 13 -31 23 -74 9 -42 24 -113
35 -157 47 -207 47 -209 13 -273 -24 -45 -37 -58 -58 -60 -30 -4 -43 -26 -26
-46 9 -11 5 -25 -20 -66 -22 -37 -34 -48 -39 -39 -13 23 -21 89 -24 184 -2 87
-21 165 -51 211 -8 13 -13 51 -13 107 0 87 -21 178 -48 206 -24 26 -25 5 -2
-45 19 -40 23 -66 23 -149 0 -84 -4 -107 -23 -147 -59 -119 -215 -129 -300
-20 -58 73 -76 121 -76 204 -1 42 2 80 6 84 4 4 32 -1 63 -10 93 -30 190 -2
255 71 67 76 89 185 61 301 -10 38 -25 64 -57 98 -24 24 -44 47 -44 50 0 3 11
17 25 32 96 104 58 335 -75 455 -28 25 -64 48 -79 52 -27 6 -30 12 -46 83 -9
42 -20 91 -25 107 -38 131 -11 197 120 301 30 24 57 44 60 44 3 0 20 -71 37
-158z m2870 43 c51 -89 128 -255 156 -337 5 -14 18 -18 56 -18 62 0 322 -34
424 -56 l77 -17 -15 -24 c-35 -53 -246 -241 -328 -293 -31 -19 -56 -41 -57
-48 0 -7 11 -57 24 -110 41 -166 42 -152 -17 -213 -29 -30 -69 -67 -89 -82
l-37 -28 -78 42 c-67 37 -156 92 -198 123 -9 6 -35 -5 -83 -37 -39 -26 -95
-59 -125 -73 l-54 -27 -70 27 c-38 15 -88 40 -111 57 -37 27 -41 33 -35 62 6
32 58 227 69 259 4 12 -6 24 -33 41 -22 14 -46 31 -54 39 -8 7 -47 42 -87 77
-126 110 -222 214 -209 228 12 11 243 44 391 55 127 10 159 15 163 27 42 126
222 446 246 439 7 -2 40 -53 74 -113z m1286 -11 c213 -108 386 -376 427 -662
20 -141 -22 -283 -107 -363 -37 -36 -122 -94 -128 -87 -1 2 10 53 26 113 43
166 40 393 -7 533 -47 141 -156 252 -246 252 -22 0 -23 3 -23 83 -1 45 -4 94
-8 109 -5 21 -3 28 10 31 10 3 19 5 21 6 2 0 17 -6 35 -15z m-4530 -186 c4
-18 9 -43 13 -55 5 -18 -2 -25 -44 -47 -68 -34 -187 -139 -217 -190 -14 -24
-34 -78 -46 -122 -39 -145 -24 -503 27 -647 18 -50 19 -47 -15 -47 -64 0 -117
92 -142 245 -17 108 -17 374 0 450 33 151 87 256 163 318 54 45 206 127 234
127 16 0 23 -8 27 -32z m4553 -69 c57 -27 110 -88 144 -163 46 -103 55 -157
55 -331 -1 -148 -3 -169 -32 -276 -56 -205 -134 -359 -248 -486 -26 -29 -51
-50 -56 -47 -5 3 -9 19 -9 35 0 17 -5 39 -10 50 -9 15 -5 26 20 57 17 21 40
63 52 93 25 65 35 209 20 290 l-11 57 46 47 c25 26 62 82 82 124 35 74 36 79
36 191 0 111 -1 118 -33 183 -25 51 -46 77 -86 107 -29 22 -58 40 -64 40 -13
0 -15 11 -6 34 8 22 49 20 100 -5z m-4517 -83 c16 -66 14 -77 -21 -107 -42
-36 -20 -37 33 -2 61 40 138 39 205 -2 114 -71 181 -229 154 -361 -15 -73 -82
-146 -150 -164 -68 -18 -186 -9 -243 19 -180 88 -271 345 -181 510 28 53 81
104 139 134 45 24 52 21 64 -27z m4439 20 c15 -8 44 -32 64 -53 158 -163 90
-513 -118 -604 -107 -48 -239 -30 -312 43 -53 52 -65 91 -60 192 5 94 41 176
103 238 75 74 183 88 264 35 47 -31 64 -19 23 15 l-28 23 14 63 c7 34 16 62
18 62 3 0 17 -6 32 -14z m-4688 -177 c-17 -58 -12 -170 10 -235 28 -80 80
-156 135 -196 34 -25 44 -38 40 -53 -3 -11 -8 -63 -11 -115 -9 -133 21 -246
83 -312 23 -24 24 -30 14 -59 -26 -75 -1 -194 58 -278 51 -71 9 -46 -84 51
-190 196 -274 362 -311 611 -21 144 -15 413 11 497 30 96 80 178 55 89z m1144
-196 c30 -103 99 -433 92 -441 -12 -12 -136 394 -136 444 0 20 38 17 44 -3z
m181 -46 c23 -61 16 -158 -24 -317 -27 -109 -29 -113 -36 -77 -8 41 -5 69 20
217 11 61 15 122 12 169 -6 80 1 82 28 8z m-251 -65 c22 -59 68 -181 104 -271
45 -117 61 -166 53 -174 -16 -16 -23 -5 -66 98 -21 50 -51 117 -66 150 -57
124 -109 264 -109 292 0 7 10 13 23 13 19 0 27 -14 61 -108z m1381 -162 c43
-16 131 -116 185 -209 56 -95 107 -242 117 -331 l6 -58 -54 -11 c-139 -31
-425 -42 -539 -21 -98 18 -141 27 -147 33 -8 8 14 124 37 199 34 105 106 239
165 304 81 91 157 122 230 94z m-1870 -37 c53 -54 75 -105 75 -184 0 -163 -91
-268 -232 -269 -95 0 -148 33 -193 121 -30 57 -49 190 -41 272 10 86 15 93 57
71 50 -26 190 -24 244 3 22 12 43 21 46 22 3 1 23 -16 44 -36z m3781 8 c15
-14 99 -31 153 -31 28 0 73 8 100 19 60 23 61 22 68 -95 11 -159 -43 -302
-132 -348 -30 -16 -57 -21 -108 -20 -58 0 -73 5 -109 30 -24 16 -56 52 -73 79
-28 46 -30 55 -30 149 0 92 2 105 28 148 38 64 78 92 103 69z m-71 -439 c68
-60 163 -78 248 -48 34 13 38 12 47 -4 17 -31 11 -116 -11 -177 -28 -74 -106
-156 -164 -172 -80 -21 -149 13 -190 93 -33 67 -35 185 -4 281 12 36 24 65 26
65 3 0 24 -17 48 -38z m-925 -128 c0 -16 16 -30 60 -53 l60 -32 0 26 c0 15 -5
36 -11 48 -11 20 -10 21 6 6 9 -9 19 -34 22 -56 3 -24 13 -44 24 -51 10 -7 68
-20 129 -29 74 -11 107 -20 100 -27 -6 -6 -31 -5 -75 3 -36 7 -68 11 -71 8 -3
-3 -28 1 -55 9 -48 14 -50 14 -83 -11 -21 -16 -45 -25 -67 -25 l-34 1 48 21
c32 14 47 27 47 39 0 11 -4 19 -9 19 -4 0 -30 17 -57 38 -44 34 -54 38 -95 34
-30 -2 -57 2 -75 11 -28 15 -27 15 34 10 41 -4 62 -2 62 5 0 6 -25 29 -57 51
-31 23 -52 41 -46 41 5 0 34 -18 64 -40 53 -40 71 -40 50 -1 -6 11 -11 28 -10
38 1 24 38 -56 39 -83z m-613 -111 c-20 -121 -103 -240 -204 -289 -67 -33
-187 -44 -259 -24 -134 38 -239 160 -268 309 l-6 34 42 -8 c228 -38 486 -37
648 4 19 5 39 9 44 10 5 1 6 -16 3 -36z m-2006 -168 c27 -140 -46 -255 -161
-255 -75 0 -168 74 -206 165 -14 35 -22 121 -11 131 3 3 22 -6 42 -21 29 -19
50 -25 92 -25 81 0 140 37 179 111 l17 34 19 -45 c11 -25 24 -67 29 -95z
m3506 17 c69 -47 129 -53 199 -17 27 14 51 25 53 25 2 0 1 -25 -1 -55 -6 -74
-51 -160 -106 -202 -35 -27 -53 -33 -91 -33 -139 0 -201 164 -131 345 l12 30
19 -37 c10 -20 31 -45 46 -56z m-2796 44 c-28 -29 -45 -37 -104 -47 -39 -6
-100 -20 -136 -30 -36 -11 -70 -19 -76 -19 -13 0 41 45 77 65 36 20 195 63
237 64 l35 1 -33 -34z m95 -61 c19 -14 19 -14 -1 -16 -11 0 9 -8 44 -16 44
-10 66 -12 70 -4 17 27 95 41 237 41 79 0 144 -3 144 -7 0 -5 16 -25 35 -46
20 -21 44 -55 54 -75 49 -94 109 -123 254 -123 184 1 266 38 366 167 4 5 14
27 20 47 l13 37 98 0 c89 0 100 -2 110 -20 23 -43 76 -58 214 -60 12 0 16 -5
12 -15 -3 -9 8 -25 29 -42 75 -60 293 -92 396 -58 80 26 128 52 186 101 28 24
55 44 60 44 4 0 42 -48 83 -106 41 -58 81 -114 89 -125 13 -19 -10 -19 -1618
-19 -897 0 -1631 3 -1631 6 0 4 16 33 36 65 34 56 38 59 67 54 19 -4 51 1 77
10 38 14 55 14 112 4 44 -8 65 -16 61 -23 -5 -8 -2 -8 8 0 8 6 34 14 59 17 25
4 67 9 94 13 46 7 49 6 44 -14 -15 -54 55 -78 165 -55 40 8 82 21 94 29 12 8
28 14 35 14 16 0 58 40 58 57 0 7 -4 13 -9 13 -5 0 -14 14 -21 30 -7 17 -16
30 -21 30 -11 0 -11 -7 1 -29 12 -23 -13 -61 -41 -61 -17 0 -24 16 -20 42 2
14 -69 20 -101 9 -24 -8 -33 -8 -39 0 -9 15 -1 40 19 57 14 11 14 12 -1 12 -9
0 -17 7 -17 15 0 20 50 20 76 0z m-91 -14 c3 -10 1 -29 -4 -43 -8 -22 -20 -26
-113 -42 -56 -10 -112 -19 -122 -21 -24 -5 -168 26 -160 34 3 3 15 7 27 8 12
1 49 11 81 23 64 23 214 57 258 59 18 1 29 -5 33 -18z m-709 -236 c3 -21 10
-48 14 -61 5 -12 7 -24 5 -25 -2 -2 751 -3 1674 -1 l1677 2 13 65 13 65 20
-26 c19 -23 20 -30 9 -79 -7 -30 -19 -56 -27 -59 -9 -3 -780 -6 -1714 -6
l-1698 0 -16 66 c-16 63 -14 90 5 79 5 -4 9 2 9 11 0 28 9 11 16 -31z m2434
-195 l0 -30 -730 0 -730 0 0 30 0 30 730 0 730 0 0 -30z m1013 -122 c50 -78
165 -263 214 -345 26 -44 40 -80 37 -90 -5 -15 -4 -15 5 -3 8 12 11 12 17 -3
4 -11 0 -25 -10 -36 -14 -16 -14 -19 0 -37 15 -19 15 -19 6 0 -7 14 -6 24 5
34 7 8 15 13 17 11 35 -45 146 -244 142 -254 -3 -8 0 -12 7 -9 8 3 44 -47 90
-123 43 -71 96 -157 118 -193 22 -35 37 -70 34 -78 -2 -7 0 -10 5 -7 9 6 43
-42 86 -123 13 -25 24 -41 24 -36 1 5 10 -8 21 -29 11 -21 17 -43 13 -49 -4
-7 -3 -8 4 -4 14 9 72 -80 72 -112 0 -29 -77 -192 -91 -192 -6 0 -8 -4 -5 -9
3 -5 -1 -14 -9 -21 -8 -7 -15 -9 -15 -5 0 4 -7 2 -15 -5 -8 -7 -15 -17 -15
-23 0 -6 7 -2 15 9 8 10 15 14 15 9 0 -18 -122 -131 -178 -165 -32 -20 -59
-29 -69 -25 -10 3 -14 3 -10 -2 5 -4 -16 -17 -45 -28 -53 -20 -71 -20 -2063
-23 -1400 -2 -2043 0 -2120 8 -110 11 -244 42 -342 79 -64 25 -178 99 -220
143 -47 49 -93 153 -93 210 0 43 12 69 23 51 2 -5 2 -2 0 5 -4 19 90 191 101
185 5 -4 6 -1 3 4 -4 6 15 48 41 94 26 46 56 101 67 121 10 20 23 34 28 31 6
-3 7 -1 3 6 -4 6 2 24 13 40 12 16 21 31 21 34 0 2 12 25 26 51 23 40 28 45
38 31 10 -15 12 -14 12 4 0 11 -4 17 -9 14 -21 -13 38 107 62 127 3 3 7 12 9
20 2 8 45 89 96 180 51 91 104 185 118 210 13 25 34 61 45 80 11 19 36 65 56
102 20 37 47 85 60 105 13 21 27 48 31 61 l7 22 1734 0 1734 0 34 -52z m-4225
-1828 c4 0 17 -9 29 -19 19 -18 98 -58 173 -87 54 -21 187 -52 273 -63 53 -8
727 -11 2110 -11 1961 0 2035 1 2118 19 60 14 104 31 144 57 40 25 56 31 52
20 -4 -10 -3 -15 3 -11 6 3 10 11 10 17 0 14 30 48 43 48 5 0 3 -8 -4 -17 -13
-16 -12 -17 3 -4 10 7 16 16 14 20 -2 3 14 26 36 51 44 50 42 43 -15 -48 -21
-34 -42 -60 -47 -57 -4 3 -7 -1 -6 -8 5 -50 -295 -348 -441 -438 -26 -17 -52
-22 -103 -23 -37 -1 -66 -3 -65 -7 4 -5 -275 -33 -505 -49 -694 -50 -1156 -65
-1720 -56 -499 7 -742 16 -715 27 11 4 -2 5 -30 3 -27 -3 -124 2 -215 11 -91
9 -185 16 -210 15 -32 0 -41 2 -31 9 10 7 2 8 -25 4 -37 -5 -362 30 -409 44
-54 16 -298 241 -383 354 -41 55 -52 76 -32 64 6 -4 7 1 3 11 -4 12 -8 14 -11
6 -3 -10 -7 -10 -18 -1 -8 6 -11 15 -8 20 3 5 0 9 -5 9 -6 0 -25 28 -43 63
-50 95 -52 106 -14 65 19 -21 39 -38 44 -38z"/>
<path d="M3583 9373 c-3 -10 -46 -116 -95 -236 -48 -120 -88 -222 -88 -227 0
-17 135 -89 141 -77 4 7 24 86 44 177 21 91 41 171 44 178 6 10 44 -34 126
-145 8 -11 23 4 70 67 70 96 58 106 135 -120 29 -85 56 -159 60 -163 4 -4 35
18 70 50 l62 58 -113 228 c-62 125 -116 226 -120 225 -4 -2 -39 -34 -78 -71
l-72 -68 -32 26 c-134 109 -147 117 -154 98z"/>
<path d="M4290 8625 c-63 -7 -254 -27 -425 -44 -170 -18 -384 -41 -475 -52
-239 -30 -505 -58 -660 -70 -185 -15 -270 -28 -270 -43 0 -10 16 -9 73 0 39 7
95 13 124 14 54 0 272 23 623 65 113 14 320 36 460 50 140 14 334 34 430 45
389 42 474 38 713 -37 81 -25 151 -43 154 -39 4 3 4 8 2 10 -14 13 -299 98
-356 106 -90 13 -251 11 -393 -5z"/>
<path d="M3721 7956 c-69 -38 -64 -146 8 -176 62 -25 125 7 138 70 16 83 -72
147 -146 106z"/>
<path d="M2223 7460 c-53 -22 -69 -146 -35 -279 25 -98 42 -91 42 16 0 109 12
137 61 141 24 2 44 -4 62 -18 35 -28 78 -101 92 -159 17 -63 35 -65 35 -4 0
95 -40 204 -94 255 -46 43 -122 65 -163 48z m135 -57 c35 -29 73 -91 86 -143
l7 -25 -18 25 c-9 14 -36 44 -59 68 -33 33 -48 42 -75 42 -19 0 -39 -4 -45 -8
-22 -15 -44 -58 -44 -87 0 -23 -3 -27 -10 -15 -15 24 -12 109 7 147 16 34 17
35 65 31 35 -4 60 -14 86 -35z"/>
<path d="M5321 7408 c-100 -50 -218 -238 -229 -364 -6 -78 10 -85 25 -10 31
148 127 266 217 266 36 0 83 -50 97 -104 22 -87 36 -49 30 78 -6 127 -57 175
-140 134z"/>
<path d="M4111 6184 c-105 -105 -201 -142 -340 -131 -112 9 -200 48 -309 136
-61 50 -82 61 -82 41 0 -14 106 -96 175 -135 83 -46 155 -65 249 -65 85 0 159
15 213 43 49 26 202 176 179 177 -10 0 -48 -30 -85 -66z"/>
<path d="M3151 5488 c-18 -51 -35 -101 -38 -110 -5 -17 29 -18 628 -18 438 0
639 4 649 11 13 9 13 10 -1 6 -13 -4 -21 8 -34 56 -10 34 -19 69 -20 77 -1 8
-7 27 -13 42 l-11 26 -563 2 -564 1 -33 -93z m1159 -14 c11 -36 20 -70 20 -75
0 -5 -250 -9 -590 -9 l-590 0 22 53 c11 28 23 62 26 75 l4 22 544 0 543 0 21
-66z"/>
<path d="M3165 5052 c-38 -13 -74 -27 -79 -32 -5 -5 -35 -7 -66 -3 -100 10
-169 -45 -203 -163 -12 -42 -13 -56 -2 -87 21 -62 74 -140 115 -171 37 -28 39
-30 42 -100 2 -39 3 -72 2 -74 -1 -1 -13 2 -28 7 -26 10 -26 10 -26 -33 0 -45
10 -56 51 -56 17 0 19 -8 19 -64 0 -35 6 -98 14 -138 8 -41 15 -136 15 -211
l0 -137 -24 0 c-13 0 -27 5 -30 10 -14 23 -35 9 -35 -24 0 -21 5 -34 13 -33 6
0 25 -1 40 -1 l28 -2 -3 -67 c-2 -46 1 -68 10 -71 6 -2 12 -14 12 -27 0 -13 4
-26 9 -29 4 -3 11 -23 15 -45 3 -21 13 -41 21 -45 8 -3 15 -14 15 -24 0 -33
68 -83 101 -75 31 8 42 76 43 247 l1 160 28 16 c37 23 39 26 42 55 4 33 -9 39
-40 19 -14 -9 -28 -14 -31 -11 -3 2 4 45 15 93 24 101 51 332 50 414 -1 49 -2
51 -8 20 -4 -19 -13 -44 -20 -55 -10 -17 -11 -11 -8 39 4 58 4 58 -14 35 -10
-13 -24 -40 -30 -59 -6 -19 -15 -39 -20 -44 -5 -6 -9 -21 -9 -35 0 -57 -18
-52 -24 5 -4 33 -9 72 -12 87 -5 23 -2 29 15 34 31 8 30 70 -1 75 -22 4 -21 5
7 17 69 30 103 48 146 78 26 18 53 33 60 33 45 1 88 80 70 131 -12 34 -2 54
42 87 78 59 49 194 -53 244 -29 14 -72 24 -125 28 -67 5 -90 2 -150 -18z m262
-35 c42 -22 85 -79 77 -101 -6 -16 -8 -16 -27 1 -20 17 -20 16 1 -11 32 -41
28 -62 -20 -96 -47 -34 -63 -34 -62 0 1 20 -1 21 -11 7 -7 -11 -16 -13 -26 -6
-8 5 -9 9 -3 9 6 0 10 13 9 29 -1 26 1 29 17 20 13 -7 18 -6 18 2 0 8 4 8 15
-1 8 -7 15 -18 15 -26 0 -7 5 -16 10 -19 24 -15 7 28 -26 64 -58 65 -129 83
-221 55 -33 -9 -29 14 5 27 15 6 54 9 87 6 36 -3 52 -2 40 3 -34 15 -119 11
-143 -5 -16 -12 -26 -13 -42 -5 -11 6 -20 15 -20 20 0 12 46 24 65 16 8 -3 14
0 12 6 -6 31 173 35 230 5z m-348 -43 c40 -17 113 -71 186 -138 28 -25 53 -46
57 -46 12 0 2 -58 -13 -77 -21 -26 -32 -33 -47 -28 -7 3 -11 1 -8 -4 6 -10
-26 -21 -62 -21 -23 0 -23 0 4 24 24 20 28 31 28 75 0 28 -5 56 -12 63 -8 8
-11 -3 -11 -46 1 -55 -17 -96 -43 -96 -11 0 -10 58 2 65 14 9 12 65 -2 66 -7
1 -21 1 -30 0 -12 -2 -18 5 -18 18 0 11 -5 23 -12 27 -19 12 23 23 62 17 19
-3 39 -11 43 -17 6 -7 7 -7 5 2 -2 7 -23 22 -46 32 -24 11 -40 15 -37 10 3 -6
0 -10 -7 -10 -47 0 -89 -23 -108 -58 -15 -30 -19 -33 -20 -15 0 12 5 25 10 28
6 3 8 16 5 28 -4 13 -1 34 5 47 l10 25 -5 -27 c-3 -15 -1 -29 4 -33 16 -9 22
12 12 38 -6 16 -6 28 2 36 8 8 8 11 0 11 -17 0 -42 -45 -54 -97 -13 -57 -1
-115 33 -158 29 -37 113 -75 165 -75 84 0 163 53 163 110 0 13 5 20 13 17 27
-9 -6 -84 -50 -112 -18 -11 -32 -24 -33 -29 0 -10 50 22 68 43 7 9 20 31 28
49 13 30 17 32 32 20 40 -31 43 -69 7 -102 -24 -22 -30 -25 -77 -28 -13 -1
-29 -7 -35 -14 -7 -7 -22 -10 -34 -7 -16 5 -20 3 -14 -6 6 -10 2 -11 -15 -6
-14 4 -20 3 -16 -3 5 -9 -45 -22 -88 -22 -30 0 -11 12 31 20 38 8 38 8 6 9
-18 0 -43 -4 -57 -10 -21 -10 -32 -7 -73 16 -74 43 -114 75 -107 87 4 6 3 8
-3 5 -6 -4 -17 1 -25 11 -63 71 -62 209 2 267 18 16 23 17 30 5 8 -13 10 -12
10 2 0 9 6 18 13 21 27 10 92 5 126 -9z m-21 -691 c11 -58 84 -394 97 -445 6
-24 3 -29 -20 -38 -14 -5 -28 -10 -30 -10 -2 0 -9 26 -15 58 -6 31 -22 100
-35 152 -18 72 -55 297 -55 336 0 2 11 4 24 4 21 0 25 -6 34 -57z m181 -88
c-6 -119 -21 -237 -46 -345 -6 -24 -6 -23 -15 10 -21 83 7 311 58 469 9 29 10
2 3 -134z m-64 -468 c2 -7 6 -72 9 -144 l6 -133 -25 0 c-13 0 -36 10 -50 23
l-26 22 7 117 c7 123 6 121 57 125 10 1 20 -4 22 -10z"/>
<path d="M2090 2570 c-8 -5 -12 -10 -8 -10 4 0 -2 -19 -15 -41 -12 -23 -43
-82 -69 -131 -77 -144 -231 -436 -280 -528 -25 -47 -70 -132 -101 -190 -30
-58 -76 -145 -102 -195 -26 -49 -59 -111 -72 -137 -13 -27 -29 -48 -35 -48 -6
0 -9 -3 -5 -6 3 -3 -14 -44 -38 -91 -60 -116 -68 -164 -39 -232 13 -28 39 -67
59 -85 36 -34 188 -116 215 -116 13 0 13 -2 0 -11 -13 -9 -12 -10 3 -5 10 3
53 -5 95 -19 134 -42 176 -45 651 -45 312 0 451 -4 441 -10 -11 -8 -7 -9 14
-4 17 4 138 7 270 7 2158 -2 2897 -1 2926 6 67 15 152 64 214 122 35 32 66 55
70 52 4 -4 4 0 1 8 -3 9 2 22 11 30 16 12 17 12 11 -4 -4 -11 -3 -16 3 -12 6
3 7 17 4 30 -3 12 -1 26 5 29 6 4 20 29 32 56 12 28 24 48 28 46 3 -2 7 16 9
41 2 43 -14 86 -48 126 -6 6 -29 44 -51 82 -23 39 -55 93 -71 120 -72 118
-108 186 -103 196 4 5 1 8 -5 7 -19 -5 -121 163 -114 187 4 13 2 16 -4 7 -6
-9 -17 1 -40 37 -18 27 -32 52 -32 55 0 4 -11 24 -25 44 -28 41 -33 61 -10 42
8 -7 15 -18 15 -25 0 -7 8 -19 18 -26 15 -13 16 -12 3 3 -7 10 -11 25 -7 33 3
9 -8 37 -24 63 -16 26 -30 44 -30 39 0 -4 11 -25 25 -47 31 -48 32 -59 4 -34
-12 10 -24 18 -28 17 -3 -1 -5 5 -5 12 1 8 -2 12 -7 10 -8 -5 -78 111 -78 129
1 5 -3 12 -8 15 -11 7 -61 85 -127 196 -26 44 -52 87 -57 95 -5 8 -23 39 -40
68 l-31 52 -1701 0 c-1082 0 -1707 -4 -1717 -10z m3368 -39 c-9 -25 -214 -298
-220 -294 -5 2 -8 17 -8 32 0 38 -51 106 -97 129 -112 56 -258 14 -300 -86
-11 -26 -18 -32 -31 -27 -113 47 -258 21 -337 -60 -27 -28 -37 -32 -92 -33
-40 -1 -63 2 -63 9 0 20 -62 143 -99 195 -33 47 -65 72 -114 88 -12 4 -27 -3
-44 -20 -18 -18 -29 -22 -36 -15 -15 15 -59 14 -94 -1 -41 -18 -175 -156 -198
-205 -23 -48 -42 -57 -81 -36 -27 14 -27 13 -10 -6 10 -11 35 -32 57 -47 29
-20 39 -33 38 -53 0 -15 -3 -20 -6 -11 -3 8 -19 27 -36 43 -26 24 -32 26 -46
13 -29 -26 -65 -29 -85 -7 -22 25 -18 52 12 67 36 18 39 27 7 20 -16 -4 -33
-12 -36 -17 -12 -20 -88 -12 -127 13 -44 28 -77 44 -154 72 l-56 21 79 30 c78
29 90 40 67 63 -14 14 -80 16 -93 3 -6 -6 -44 -23 -85 -39 -73 -29 -80 -30
-305 -35 -197 -5 -244 -9 -331 -30 -99 -24 -122 -24 -214 -3 -14 3 -38 8 -53
12 -23 5 -35 21 -71 92 -24 48 -47 97 -50 110 l-7 22 1661 0 c939 0 1660 -4
1658 -9z m122 -153 c52 -84 131 -215 177 -290 46 -76 121 -200 167 -275 46
-76 92 -152 102 -170 11 -18 55 -92 99 -164 116 -191 134 -221 148 -249 6 -14
14 -27 18 -30 14 -11 59 -91 59 -104 0 -7 -19 -51 -42 -97 -67 -134 -202 -256
-303 -274 -29 -5 -31 -2 -68 72 -21 43 -38 82 -37 86 0 5 14 20 30 34 29 24
41 63 20 63 -5 0 -10 6 -10 14 0 8 -10 22 -22 30 -35 25 -44 19 -14 -9 56 -52
16 -83 -93 -75 -55 4 -76 10 -87 24 -14 19 -4 52 20 68 8 6 8 8 -1 8 -19 0
-43 -30 -43 -53 0 -13 13 -37 29 -54 22 -24 40 -33 77 -38 27 -4 54 -8 59 -10
8 -2 71 -115 93 -167 2 -5 -107 -8 -242 -8 -135 0 -246 2 -246 5 0 4 7 20 16
36 11 22 20 29 32 24 43 -18 50 -5 117 206 4 13 -1 18 -17 21 -15 2 -23 10
-23 23 0 12 6 19 15 18 10 -2 22 17 36 60 18 56 23 62 51 65 28 3 32 -2 67
-67 36 -69 38 -71 74 -69 35 1 35 1 6 5 -27 4 -35 13 -64 73 l-34 69 28 22
c26 20 28 27 24 71 -4 36 -13 57 -34 79 -25 26 -27 33 -17 59 16 42 9 167 -13
220 -22 54 -34 71 -99 133 -46 43 -187 125 -242 139 -16 4 -36 32 -69 100 -44
90 -45 95 -42 169 3 57 10 86 29 117 25 43 168 242 173 242 2 0 45 -69 96
-152z m-3415 56 c22 -48 41 -90 43 -94 2 -4 -23 1 -55 12 -88 30 -93 30 -105
3 -15 -34 2 -51 71 -71 120 -35 126 -38 129 -68 l3 -28 -98 2 c-129 2 -123 3
-123 -24 0 -40 22 -49 125 -47 l95 1 0 -42 c0 -32 -14 -68 -53 -142 l-52 -99
-68 -23 c-38 -12 -84 -30 -102 -38 -18 -9 -37 -16 -42 -16 -22 -1 -85 -39
-125 -76 -93 -86 -147 -216 -149 -358 -2 -93 11 -147 53 -227 l29 -57 -61
-117 c-33 -64 -55 -115 -48 -113 7 2 22 22 34 43 11 22 31 60 43 84 13 24 26
40 29 35 22 -31 184 -84 257 -84 23 0 43 -12 77 -44 34 -32 59 -46 90 -52 63
-12 147 -4 182 16 18 9 59 19 91 22 33 3 76 12 95 21 43 20 111 59 126 72 6 6
33 28 61 50 57 45 153 161 166 199 5 14 12 26 16 26 15 0 32 80 25 118 -8 49
-42 99 -77 113 -22 9 -38 31 -66 93 -40 86 -109 170 -167 207 l-36 22 28 12
c44 18 57 40 51 83 -6 35 -4 38 34 59 32 18 45 20 67 12 15 -6 54 -16 87 -24
33 -7 100 -25 149 -40 109 -32 185 -32 288 2 72 24 94 31 112 32 4 1 5 9 2 18
-5 11 2 24 20 38 l28 22 -22 35 c-26 41 -22 57 19 87 21 16 27 26 20 34 -6 8
-3 19 9 35 23 28 60 30 60 3 0 -11 5 -23 10 -26 6 -3 10 -17 10 -31 l0 -25 29
20 c33 24 61 27 79 9 22 -22 12 -44 -39 -89 -65 -57 -75 -62 -105 -55 -23 6
-29 20 -26 59 1 9 -3 17 -8 17 -13 0 -13 -83 0 -96 8 -8 7 -19 -1 -37 -20 -43
1 -74 58 -88 44 -12 46 -13 23 -22 -14 -6 -40 -17 -58 -25 -18 -8 -50 -15 -70
-16 -31 -1 -37 3 -46 28 -9 24 -7 31 13 47 13 10 19 19 14 19 -5 0 -19 -10
-32 -21 -17 -16 -21 -28 -16 -47 6 -26 6 -26 -12 -6 -10 11 -15 15 -12 9 54
-86 71 -137 50 -149 -5 -4 -7 2 -4 12 2 11 -4 33 -14 50 l-19 31 -33 -20 c-18
-11 -34 -19 -35 -17 -1 2 -10 15 -19 30 -30 48 -17 88 30 88 20 0 22 2 11 14
-11 12 -17 11 -41 -6 -26 -19 -28 -25 -22 -62 19 -127 18 -140 -14 -191 -43
-67 -54 -106 -41 -140 6 -15 19 -29 30 -32 15 -4 20 -14 20 -37 0 -17 9 -42
20 -56 11 -14 20 -33 20 -42 0 -25 67 -97 96 -104 25 -6 28 -12 18 -38 -5 -12
-19 -2 -59 41 -45 47 -56 54 -69 44 -11 -9 -20 -10 -35 -2 -29 16 -49 13 -68
-8 -13 -16 -20 -17 -41 -8 -22 10 -28 8 -56 -26 -40 -47 -76 -136 -76 -186 0
-27 8 -49 25 -69 14 -17 25 -39 25 -49 0 -21 30 -53 67 -72 32 -16 83 -14 154
9 38 11 67 16 73 10 5 -5 9 -26 10 -47 l1 -38 -355 1 c-954 2 -1066 4 -1047
18 10 8 20 30 24 49 5 30 1 40 -22 61 -39 36 -79 34 -124 -6 -21 -18 -50 -44
-65 -56 l-28 -24 -83 27 c-86 27 -187 82 -233 126 -76 73 -81 136 -20 248 22
42 52 96 65 120 14 25 56 106 95 180 39 75 75 138 80 139 4 2 8 10 8 18 0 7
10 30 21 51 12 21 46 83 74 138 68 129 110 209 169 320 82 153 143 267 177
333 18 34 36 62 39 62 3 0 23 -39 45 -86z m1843 -7 c13 -16 -1 -87 -24 -123
l-16 -24 -30 22 -30 21 11 -21 c6 -11 16 -24 21 -27 15 -9 -7 -44 -36 -57 -19
-9 -28 -8 -44 7 -23 21 -25 16 -8 -21 11 -23 10 -28 -7 -40 -10 -8 -28 -14
-39 -14 -28 1 -66 34 -66 57 0 28 51 102 101 148 84 77 142 102 167 72z m1073
-38 c51 -17 99 -57 115 -95 8 -18 14 -60 14 -92 l0 -60 -75 -11 c-42 -6 -98
-11 -125 -11 -48 0 -49 1 -68 43 -10 23 -35 57 -56 75 -29 26 -36 37 -30 55
12 41 68 86 118 94 11 2 22 6 25 8 8 9 47 5 82 -6z m-902 -25 c27 -34 27 -64
1 -92 -60 -64 -157 14 -112 90 23 39 81 40 111 2z m-1989 -48 c58 -18 125 -37
150 -41 25 -4 56 -13 70 -20 14 -7 56 -15 94 -19 37 -4 98 -13 135 -22 103
-23 348 -104 361 -119 14 -16 26 -155 14 -155 -5 0 -60 16 -124 36 -330 102
-341 107 -446 204 -42 40 -84 70 -96 70 -19 0 -168 37 -245 61 -31 10 -54 39
-30 39 7 0 59 -15 117 -34z m721 -45 c144 -37 229 -67 229 -81 0 -3 -36 -17
-79 -31 l-80 -25 -83 29 c-111 37 -266 77 -358 92 l-75 12 85 20 c128 31 184
29 361 -16z m1174 -105 c15 -15 20 -71 9 -101 -8 -19 -55 -45 -84 -45 -12 0
-35 14 -52 30 -26 27 -30 36 -25 67 7 41 30 70 61 75 29 5 73 -7 91 -26z m598
17 c25 -29 30 -68 13 -102 -9 -17 -18 -31 -20 -31 -3 0 -11 -3 -19 -6 -9 -3
-16 2 -19 14 -4 13 -19 23 -44 29 -37 9 -39 11 -38 47 1 23 8 42 20 51 27 20
87 19 107 -2z m-1567 -128 c24 -16 77 -138 62 -144 -5 -2 -33 0 -62 3 l-53 7
-7 64 c-4 36 -9 72 -13 81 -5 14 -2 16 23 10 16 -4 39 -14 50 -21z m1494 0
c20 -24 7 -137 -28 -241 -44 -135 -46 -137 -95 -131 -45 6 -62 23 -77 77 -12
44 -47 82 -116 126 -84 54 -104 98 -65 145 22 28 74 35 257 37 89 2 114 -1
124 -13z m-2057 -21 c6 -6 -2 -19 -39 -59 l-22 -23 44 -24 c50 -26 57 -38 44
-73 -13 -33 -36 -32 -115 7 -45 23 -68 40 -71 55 -9 33 2 52 33 59 15 4 35 14
43 23 13 15 55 39 71 40 3 1 8 -2 12 -5z m2731 -25 c15 -11 35 -38 46 -59 18
-36 19 -41 4 -82 -15 -42 -14 -43 9 -63 26 -21 47 -56 47 -76 0 -10 -3 -10
-12 -1 -7 7 -18 12 -25 12 -11 0 -11 -4 -2 -22 22 -41 -10 -203 -46 -240 -4
-4 -25 0 -48 8 -23 7 -100 29 -172 48 -71 20 -168 46 -215 59 -94 25 -117 49
-58 61 20 4 34 2 36 -4 5 -14 57 -40 80 -40 12 0 26 12 35 32 17 36 10 59 -27
89 -16 13 -20 26 -17 61 2 40 -2 50 -38 92 -23 26 -41 53 -41 61 0 18 76 31
94 16 10 -8 12 -29 9 -74 -6 -74 14 -127 48 -127 12 0 33 -8 47 -19 39 -27 85
-34 134 -20 48 15 61 27 88 84 26 55 28 114 6 148 -10 15 -21 27 -25 27 -3 0
-15 7 -26 16 -17 13 -18 16 -5 24 23 15 45 12 74 -11z m-1511 -38 c-5 -3 -17
-19 -26 -34 l-18 -28 31 16 c49 25 48 10 -2 -37 l-46 -43 -12 33 c-6 18 -15
30 -20 27 -6 -4 -5 -14 2 -24 6 -10 8 -30 4 -46 -7 -26 -9 -27 -49 -21 -48 8
-63 19 -51 37 4 8 9 21 9 31 2 23 -50 42 -76 27 -12 -6 -19 -6 -19 0 0 17 38
22 81 11 22 -6 43 -9 46 -6 3 3 -6 8 -21 12 -29 7 -35 23 -8 25 36 3 40 5 61
29 21 26 29 13 11 -20 -8 -15 -7 -18 2 -15 8 3 18 15 23 27 12 26 42 40 32 14
-19 -45 -16 -48 15 -12 27 32 34 36 36 22 2 -10 0 -21 -5 -25z m1351 27 c-3
-4 4 -8 15 -8 26 0 54 -39 40 -56 -20 -25 2 -61 34 -55 5 1 7 -4 5 -11 -3 -7
-15 -12 -27 -10 -39 6 -131 -19 -160 -44 -16 -13 -37 -24 -47 -24 -14 0 -10 6
14 20 17 11 32 26 32 34 0 21 -28 46 -51 46 -22 0 -22 0 -10 34 6 14 19 26 33
28 13 2 23 10 23 18 0 8 11 20 25 27 27 14 82 14 74 1z m-350 -31 c3 -19 22
-60 41 -92 19 -31 35 -59 35 -60 0 -2 -9 -1 -19 2 -30 8 -63 -32 -59 -70 3
-32 3 -32 -56 -41 -38 -6 -64 -6 -75 1 -26 17 -32 89 -14 175 15 70 19 78 45
87 27 10 29 8 45 -30 19 -49 28 -45 14 7 -8 29 -8 40 2 46 23 15 35 8 41 -25z
m-667 -28 c86 -32 233 -259 233 -360 0 -43 -31 -59 -104 -52 -74 7 -197 -17
-275 -53 -30 -13 -81 -49 -112 -79 -97 -93 -144 -70 -170 79 -12 74 -7 205 11
267 21 74 138 154 270 184 41 9 80 18 85 20 19 6 34 5 62 -6z m-1662 -148
c236 -85 372 -308 325 -532 -24 -111 -122 -230 -234 -283 -80 -38 -91 -39
-105 -13 -21 39 -92 67 -171 67 -84 0 -141 -21 -174 -63 l-24 -30 -73 35
c-176 85 -270 233 -255 404 12 148 81 263 213 355 47 33 72 44 158 70 83 26
254 21 340 -10z m2996 -57 c13 -67 -4 -171 -52 -322 -38 -119 -47 -175 -31
-198 4 -6 27 -15 52 -19 25 -4 60 -14 79 -21 19 -8 35 -13 37 -12 7 8 87 230
99 279 8 31 15 86 15 122 0 92 -24 143 -95 201 -57 46 -64 66 -9 24 137 -103
172 -189 144 -354 -8 -45 -85 -304 -96 -322 -1 -2 -27 8 -57 22 -31 13 -89 32
-129 41 -40 9 -79 20 -86 24 -11 6 -4 38 32 145 26 75 53 169 61 207 18 83 20
211 4 242 -11 21 -10 21 6 6 9 -10 21 -39 26 -65z m-1833 -65 c43 -18 49 -31
33 -71 -5 -13 -12 -32 -16 -43 -6 -19 -7 -19 -17 -2 -5 11 -25 25 -44 33 -93
39 -172 -78 -102 -153 28 -30 71 -38 108 -20 29 15 30 15 29 -6 0 -12 -13 -32
-29 -45 l-29 -23 -63 32 c-52 26 -78 33 -143 36 -107 5 -122 9 -128 34 -4 16
-2 19 11 14 75 -30 135 3 137 74 1 30 7 45 22 56 12 8 27 31 33 50 10 30 14
33 30 25 23 -12 68 3 76 25 7 17 22 15 92 -16z m1337 -120 c337 -92 395 -110
395 -117 0 -4 -3 -18 -7 -30 -6 -26 -6 -26 -103 1 -30 8 -154 42 -275 76 -121
33 -236 65 -255 71 -19 5 -36 10 -37 10 -2 0 -3 -9 -3 -19 0 -15 16 -23 83
-40 45 -12 120 -33 167 -46 245 -69 338 -94 368 -100 34 -7 45 -25 15 -25 -10
1 -162 41 -338 89 l-320 89 2 36 c3 42 19 76 36 76 7 0 129 -32 272 -71z
m-670 -59 c21 -17 19 -83 -2 -108 -28 -33 -110 -68 -201 -86 -143 -28 -216
-18 -229 32 -5 20 2 31 38 63 24 21 46 39 49 39 3 0 15 -17 27 -38 22 -36 22
-37 17 -7 -12 66 -11 68 31 81 97 28 99 28 124 -13 l22 -38 -6 39 c-5 27 -2
42 7 48 18 12 104 4 123 -12z m475 -85 c17 -21 9 -47 -20 -62 -121 -59 -162
-65 -173 -21 -10 35 9 55 70 76 72 24 107 26 123 7z m-1400 -42 l1 -28 20 24
c19 24 20 24 59 6 31 -14 39 -22 34 -37 -6 -20 6 -24 23 -7 11 11 53 3 53 -10
0 -8 -106 -91 -117 -91 -17 0 -143 87 -153 106 -18 33 1 59 44 62 33 2 36 0
36 -25z m1492 -17 c24 -8 95 -29 158 -46 87 -25 120 -39 138 -59 27 -31 26
-79 -3 -95 -32 -18 -45 -33 -62 -73 -23 -53 -30 -16 -8 39 14 36 14 43 1 56
-13 13 -19 13 -53 0 -21 -9 -40 -24 -42 -34 -2 -10 -14 -33 -28 -51 -20 -26
-37 -35 -96 -48 -82 -19 -118 -49 -162 -136 -15 -30 -34 -58 -41 -62 -14 -8
-20 -48 -6 -46 4 1 15 1 26 0 15 -1 16 -4 7 -15 -10 -12 -7 -18 18 -30 66 -35
216 -3 291 61 l40 35 45 -18 c53 -20 100 -59 110 -91 l6 -23 -289 0 -290 0
-33 38 c-19 22 -46 54 -62 72 -23 27 -32 31 -54 25 -34 -8 -43 -21 -43 -62 0
-17 -3 -38 -6 -47 -6 -17 -54 -23 -54 -7 0 5 -9 11 -20 14 -15 4 -20 14 -20
36 0 23 4 29 15 25 14 -6 53 28 86 77 17 24 17 24 64 7 88 -31 125 5 125 121
0 100 -26 157 -76 167 -35 6 -57 24 -31 24 8 0 41 14 72 30 31 17 68 30 82 30
23 0 25 -3 20 -32 -3 -18 -8 -40 -11 -48 -8 -20 74 -107 108 -116 58 -14 108
21 126 87 14 52 -20 126 -63 137 -24 6 -30 14 -32 40 -2 18 -1 32 1 32 2 0 23
-6 46 -14z m-1107 -151 c30 -30 32 -64 4 -99 -39 -50 -129 -18 -129 45 0 37
40 79 75 79 14 0 37 -11 50 -25z m-436 -75 c71 -70 80 -120 17 -104 -19 4 -26
13 -26 30 0 24 -14 32 -25 14 -10 -17 -55 20 -55 46 0 16 -4 22 -14 18 -19 -7
-31 33 -16 51 18 21 62 1 119 -55z m-155 13 c35 -67 134 -143 184 -143 30 0
54 -27 43 -48 -27 -51 -128 -111 -184 -112 -67 0 -177 86 -177 139 0 66 69
191 105 191 8 0 21 -12 29 -27z m2261 -88 c94 -32 174 -62 179 -66 10 -9 -23
-127 -43 -157 -6 -11 -48 0 -195 50 l-188 63 6 41 c7 56 43 137 59 131 6 -2
89 -30 182 -62z m-1512 10 c17 -24 17 -27 1 -54 -10 -18 -29 -31 -46 -35 -17
-3 -32 -15 -37 -29 -17 -44 -104 -83 -147 -67 -24 9 -24 10 -9 47 20 48 24 51
36 30 16 -27 30 -20 17 8 -10 23 -8 29 15 52 26 27 26 27 48 7 l22 -19 -7 27
c-5 23 -2 30 21 42 40 22 65 19 86 -9z m480 -62 c25 -13 26 -15 13 -36 -8 -12
-18 -39 -21 -59 -9 -50 -35 -57 -86 -24 -21 15 -39 34 -39 42 0 9 14 32 30 51
17 18 30 38 30 44 0 12 29 4 73 -18z m-2016 -2 c83 -38 79 -97 -10 -127 -110
-37 -272 11 -252 75 19 62 172 92 262 52z m1882 0 c11 -7 10 -14 -8 -40 -25
-35 -21 -65 10 -82 12 -6 18 -17 15 -27 -2 -9 -7 -43 -11 -74 l-6 -58 -98 0
c-75 0 -101 4 -111 15 -7 8 -17 15 -22 15 -6 0 -25 7 -44 16 -28 13 -34 22
-34 46 0 29 1 30 36 23 38 -7 74 13 74 41 0 7 9 15 20 19 11 3 36 27 57 52 47
57 88 75 122 54z"/>
<path d="M2746 1893 c-3 -4 -3 -28 0 -55 l7 -49 -27 7 c-22 5 -26 3 -26 -14 0
-67 91 -187 173 -229 43 -21 60 -24 105 -20 29 3 59 10 66 16 7 6 35 14 62 17
87 10 94 13 94 38 0 48 -9 56 -62 56 -57 0 -57 0 -114 97 -30 51 -45 65 -83
81 -25 11 -66 22 -90 26 -24 4 -56 13 -71 21 -15 8 -30 11 -34 8z"/>
<path d="M2801 994 c-18 -13 -22 -23 -18 -48 17 -100 31 -144 53 -171 20 -25
31 -30 70 -30 51 0 74 20 74 63 0 26 -34 95 -63 127 -10 11 -26 32 -35 48 -19
31 -47 35 -81 11z"/>
<path d="M2165 1684 c-75 -19 -76 -21 -104 -144 -22 -94 -8 -311 21 -347 7 -9
39 -13 95 -13 l85 0 -6 33 c-3 17 -9 65 -12 106 l-7 74 54 -7 c79 -10 153 8
184 46 34 41 36 129 2 178 -39 59 -78 74 -192 77 -55 1 -109 0 -120 -3z m240
-30 c59 -29 80 -64 80 -135 0 -51 -4 -62 -28 -86 -26 -26 -33 -28 -125 -30
l-97 -2 0 -73 c0 -40 2 -86 5 -103 l5 -30 -66 -3 c-49 -2 -71 1 -82 12 -23 23
-40 149 -34 241 6 71 30 192 42 204 3 2 26 10 52 17 68 19 198 13 248 -12z"/>
<path d="M2232 1548 l3 -53 50 -8 c70 -12 109 -2 124 29 24 53 -19 84 -120 84
l-60 0 3 -52z"/>
<path d="M5206 1068 c-8 -13 -18 -35 -21 -50 -14 -54 -3 -63 143 -113 127 -43
137 -45 149 -29 18 24 47 103 41 110 -5 5 -284 104 -293 104 -3 0 -11 -10 -19
-22z"/>
<path d="M3108 454 c-3 -3 0 -22 8 -42 7 -20 27 -84 45 -142 l31 -105 556 5
c547 5 557 5 560 25 4 21 61 231 69 253 4 9 -126 12 -629 12 -349 0 -637 -3
-640 -6z m1222 -39 c0 -12 -45 -172 -55 -198 -7 -16 -39 -17 -533 -15 l-526 3
-33 105 c-18 58 -33 107 -33 110 0 3 265 5 590 5 387 0 590 -3 590 -10z"/>
</g>
</svg>
